# xmcd
#
# Track frame offsets:
#	150
#	8928
#	22423
#	34231
#	47723
#	60261
#	72967
#	85752
#	97280
#	110061
#	121543
#	135129
#	147114
#	159814
#	172507
#	182693
#	193666
#	203265
#	216410
#	229159
#
# Disc length: 3182 seconds
#
# Revision: 1
# Processed by: cddbd v1.5.2PL0 Copyright (c) Steve Scherf et al.
# Submitted via: EZCDAudioConverter 5.1.1.1
#
DISCID=060c6c14
DTITLE=Compilation - The Ultimate Collection Country [Disc 2]
DYEAR=2014
DGENRE=Country
TTITLE0=Scott Walker - The Lady Came From Baltimore
TTITLE1=Faron Young - It's Four In The Morning
TTITLE2=Jerry Lee Lewis - What's Made Milwaukee Famous (Has Made A Loser Out O
TTITLE2=f Me)
TTITLE3=Patti Page - Tennessee Waltz
TTITLE4=Hank Williams - I'm So Lonely I Could Cry
TTITLE5=Charley Pride - Crystal Chandelier
TTITLE6=Conway Twitty - I Can't Stop Loving You
TTITLE7=Freddy Fender - Before The Next Tear Drop Falls
TTITLE8=Patsy Cline - I Fall To Pieces
TTITLE9=Crystal Gayle - Don't It Make My Brown Eyes Blue
TTITLE10=Kenny Rogers - I Will Always Love You
TTITLE11=Doug Kershaw - Louisana Man
TTITLE12=Dwight Yoakam and Buck Owens - Streets Of Bakersfield
TTITLE13=The Dillards - Old Man At The Mill
TTITLE14=The Everly Brothers - Bird Dog
TTITLE15=Carl Perkins - Dixie Fried
TTITLE16=Charlie Feathers - Runnin Around
TTITLE17=Jerry Lee Lewis - You Win Again
TTITLE18=Malcolm Yelvington - Drinkin Wine Spo-Dee-O-Dee
TTITLE19=Roy Orbison - Go Go, Go
EXTD=
EXTT0=
EXTT1=
EXTT2=
EXTT3=
EXTT4=
EXTT5=
EXTT6=
EXTT7=
EXTT8=
EXTT9=
EXTT10=
EXTT11=
EXTT12=
EXTT13=
EXTT14=
EXTT15=
EXTT16=
EXTT17=
EXTT18=
EXTT19=
PLAYORDER=
